<svg xmlns="http://www.w3.org/2000/svg" viewBox="0 0 64 64" width="64" height="64" shape-rendering="crispEdges">
  <!-- Window frame -->
  <rect x="4" y="6" width="56" height="52" rx="0" fill="#2b2b2b"/>

  <!-- Title bar -->
  <rect x="6" y="8" width="52" height="8" fill="#3c3c3c"/>
  <!-- Title bar dots -->
  <rect x="9" y="11" width="3" height="3" fill="#ff5555"/>
  <rect x="15" y="11" width="3" height="3" fill="#f1fa8c"/>
  <rect x="21" y="11" width="3" height="3" fill="#50fa7b"/>

  <!-- Top-left pane -->
  <rect x="6" y="18" width="24" height="18" fill="#1e1e2e"/>
  <!-- Top-right pane -->
  <rect x="34" y="18" width="24" height="18" fill="#1e1e2e"/>
  <!-- Bottom-left pane -->
  <rect x="6" y="38" width="24" height="18" fill="#1e1e2e"/>
  <!-- Bottom-right pane -->
  <rect x="34" y="38" width="24" height="18" fill="#1e1e2e"/>

  <!-- Dividers -->
  <rect x="30" y="18" width="4" height="38" fill="#2b2b2b"/>
  <rect x="6" y="36" width="52" height="2" fill="#2b2b2b"/>

  <!-- Cursors / prompts in each pane -->
  <!-- Top-left: green prompt -->
  <rect x="9" y="21" width="3" height="3" fill="#50fa7b"/>
  <rect x="14" y="21" width="8" height="3" fill="#50fa7b" opacity="0.5"/>
  <rect x="9" y="26" width="3" height="3" fill="#50fa7b"/>
  <rect x="14" y="26" width="5" height="3" fill="#50fa7b" opacity="0.5"/>
  <rect x="9" y="31" width="4" height="3" fill="#50fa7b" opacity="0.8"/>

  <!-- Top-right: cyan prompt -->
  <rect x="37" y="21" width="3" height="3" fill="#8be9fd"/>
  <rect x="42" y="21" width="10" height="3" fill="#8be9fd" opacity="0.5"/>
  <rect x="37" y="26" width="3" height="3" fill="#8be9fd"/>
  <rect x="42" y="26" width="6" height="3" fill="#8be9fd" opacity="0.5"/>

  <!-- Bottom-left: pink prompt -->
  <rect x="9" y="41" width="3" height="3" fill="#ff79c6"/>
  <rect x="14" y="41" width="12" height="3" fill="#ff79c6" opacity="0.5"/>
  <rect x="9" y="46" width="3" height="3" fill="#ff79c6"/>

  <!-- Bottom-right: yellow prompt -->
  <rect x="37" y="41" width="3" height="3" fill="#f1fa8c"/>
  <rect x="42" y="41" width="7" height="3" fill="#f1fa8c" opacity="0.5"/>
  <rect x="37" y="46" width="3" height="3" fill="#f1fa8c"/>
  <rect x="42" y="46" width="11" height="3" fill="#f1fa8c" opacity="0.5"/>
  <rect x="37" y="51" width="4" height="3" fill="#f1fa8c" opacity="0.8"/>
</svg>
