<?xml version="1.0" encoding="UTF-8"?>
<svg height="16px" viewBox="0 0 16 16" width="16px" xmlns="http://www.w3.org/2000/svg">
    <path d="m 5.5 3 c -0.2 0 -0.4 0.08 -0.55 0.24 l -3.7 4.3 c -0.33 0.38 -0.33 0.92 0 1.3 l 3.7 4.3 c 0.27 0.32 0.76 0.36 1.08 0.08 c 0.32 -0.27 0.36 -0.76 0.08 -1.08 l -3.25 -3.78 l 3.25 -3.78 c 0.28 -0.32 0.24 -0.8 -0.08 -1.08 c -0.14 -0.12 -0.32 -0.18 -0.5 -0.18 z m 5 0 c -0.18 0 -0.36 0.06 -0.5 0.18 c -0.32 0.28 -0.36 0.76 -0.08 1.08 l 3.25 3.78 l -3.25 3.78 c -0.28 0.32 -0.24 0.8 0.08 1.08 c 0.32 0.28 0.8 0.24 1.08 -0.08 l 3.7 -4.3 c 0.33 -0.38 0.33 -0.92 0 -1.3 l -3.7 -4.3 c -0.15 -0.16 -0.35 -0.24 -0.55 -0.24 z m -2.2 -0.5 c -0.38 -0.13 -0.8 0.07 -0.94 0.45 l -2 6.5 c -0.13 0.38 0.07 0.8 0.45 0.94 c 0.38 0.13 0.8 -0.07 0.94 -0.45 l 2 -6.5 c 0.13 -0.38 -0.07 -0.8 -0.45 -0.94 z" fill="#2e3436"/>
</svg>
