<?xml version="1.0" encoding="UTF-8"?>
<svg height="16px" viewBox="0 0 16 16" width="16px" xmlns="http://www.w3.org/2000/svg">
  <path d="M 8 1 C 4.134 1 1 3.91 1 7.5 C 1 9.5 2.5 11 4.5 11 C 5.328 11 6 11.672 6 12.5 C 6 13.328 6.672 14 7.5 14 C 8.328 14 9 13.328 9 12.5 C 9 11.672 9.672 11 10.5 11 L 11.5 11 C 13.43 11 15 9.43 15 7.5 C 15 3.91 11.866 1 8 1 z M 4 4.5 A 1 1 0 0 1 5 5.5 A 1 1 0 0 1 4 6.5 A 1 1 0 0 1 3 5.5 A 1 1 0 0 1 4 4.5 z M 12 4.5 A 1 1 0 0 1 13 5.5 A 1 1 0 0 1 12 6.5 A 1 1 0 0 1 11 5.5 A 1 1 0 0 1 12 4.5 z M 6.5 3 A 1 1 0 0 1 7.5 4 A 1 1 0 0 1 6.5 5 A 1 1 0 0 1 5.5 4 A 1 1 0 0 1 6.5 3 z M 9.5 3 A 1 1 0 0 1 10.5 4 A 1 1 0 0 1 9.5 5 A 1 1 0 0 1 8.5 4 A 1 1 0 0 1 9.5 3 z" fill="#2e3436"/>
</svg>
