<?xml version="1.0" encoding="UTF-8"?>
<svg height="16px" viewBox="0 0 16 16" width="16px" xmlns="http://www.w3.org/2000/svg">
    <path d="m 2.5 1 c -0.83 0 -1.5 0.67 -1.5 1.5 v 11 c 0 0.83 0.67 1.5 1.5 1.5 h 11 c 0.83 0 1.5 -0.67 1.5 -1.5 v -11 c 0 -0.83 -0.67 -1.5 -1.5 -1.5 z m 0 1.5 h 11 v 1 h -11 z m 0 2.5 h 11 v 5 h -11 z m 0 6.5 h 11 v 2 h -11 z" fill="#2e3436"/>
    <path d="m 5.2 6.05 l -2.45 1.95 v 0.5 l 2.45 1.95 l 0.95 -0.95 l -1.85 -1.25 l 1.85 -1.25 z" fill="#2e3436"/>
    <path d="m 10.8 6.05 l -0.95 0.95 l 1.85 1.25 l -1.85 1.25 l 0.95 0.95 l 2.45 -1.95 v -0.5 z" fill="#2e3436"/>
</svg>
