<?xml version="1.0" encoding="UTF-8"?>
<svg height="16px" viewBox="0 0 16 16" width="16px" xmlns="http://www.w3.org/2000/svg">
  <path d="M 8 1 C 4.13 1 1 4.13 1 8 C 1 11.87 4.13 15 8 15 C 11.87 15 15 11.87 15 8 C 15 4.13 11.87 1 8 1 z M 8 2.5 C 11.04 2.5 13.5 4.96 13.5 8 C 13.5 11.04 11.04 13.5 8 13.5 C 4.96 13.5 2.5 11.04 2.5 8 C 2.5 4.96 4.96 2.5 8 2.5 z M 8 4 C 7.45 4 7 4.45 7 5 C 7 5.55 7.45 6 8 6 C 8.55 6 9 5.55 9 5 C 9 4.45 8.55 4 8 4 z M 7 7 L 7 8 L 7.5 8 L 7.5 11 L 7 11 L 7 12 L 9 12 L 9 11 L 8.5 11 L 8.5 7 z" fill="#2e3436"/>
</svg>
