<?xml version="1.0" encoding="UTF-8"?>
<svg height="16px" viewBox="0 0 16 16" width="16px" xmlns="http://www.w3.org/2000/svg">
  <path d="M 6 1 C 5.445312 1 5 1.445312 5 2 L 5 4 C 5 4.554688 5.445312 5 6 5 L 10 5 C 10.554688 5 11 4.554688 11 4 L 11 2 C 11 1.445312 10.554688 1 10 1 Z M 6 2 L 10 2 L 10 4 L 6 4 Z M 2 11 C 1.445312 11 1 11.445312 1 12 L 1 14 C 1 14.554688 1.445312 15 2 15 L 6 15 C 6.554688 15 7 14.554688 7 14 L 7 12 C 7 11.445312 6.554688 11 6 11 Z M 2 12 L 6 12 L 6 14 L 2 14 Z M 12 10 L 15.5 12.5 L 12 15 L 8.5 12.5 Z M 12 11.476562 L 10.566406 12.5 L 12 13.523438 L 13.433594 12.5 Z M 12 11.476562" fill="#2e3436"/>
  <path d="M 7.5 5 L 8.5 5 L 8.5 7 L 12.5 7 L 12.5 9.25 L 11.5 9.25 L 11.5 8 L 4.5 8 L 4.5 10 L 3.5 10 L 3.5 7 L 7.5 7 Z M 7.5 5" fill="#2e3436"/>
</svg>
