<?xml version="1.0" encoding="UTF-8"?>
<svg height="16px" viewBox="0 0 16 16" width="16px" xmlns="http://www.w3.org/2000/svg">
  <path d="M 1 4 C 0.45 4 0 4.45 0 5 L 0 11 C 0 11.55 0.45 12 1 12 L 15 12 C 15.55 12 16 11.55 16 11 L 16 5 C 16 4.45 15.55 4 15 4 z M 1 5 L 15 5 L 15 11 L 1 11 z M 2.5 6 L 2.5 7 L 3.5 7 L 3.5 6 z M 4.5 6 L 4.5 7 L 5.5 7 L 5.5 6 z M 6.5 6 L 6.5 7 L 7.5 7 L 7.5 6 z M 8.5 6 L 8.5 7 L 9.5 7 L 9.5 6 z M 10.5 6 L 10.5 7 L 11.5 7 L 11.5 6 z M 12.5 6 L 12.5 7 L 13.5 7 L 13.5 6 z M 2.5 7.75 L 2.5 8.75 L 3.5 8.75 L 3.5 7.75 z M 4.5 7.75 L 4.5 8.75 L 5.5 8.75 L 5.5 7.75 z M 6.5 7.75 L 6.5 8.75 L 7.5 8.75 L 7.5 7.75 z M 8.5 7.75 L 8.5 8.75 L 9.5 8.75 L 9.5 7.75 z M 10.5 7.75 L 10.5 8.75 L 11.5 8.75 L 11.5 7.75 z M 12.5 7.75 L 12.5 8.75 L 13.5 8.75 L 13.5 7.75 z M 4.5 9.5 L 4.5 10.5 L 11.5 10.5 L 11.5 9.5 z" fill="#2e3436"/>
</svg>
